<?xml version="1.0" encoding="UTF-8" standalone="no"?>
<!DOCTYPE svg PUBLIC "-//W3C//DTD SVG 1.1//EN"
 "http://www.w3.org/Graphics/SVG/1.1/DTD/svg11.dtd">
<!-- Generated by graphviz version 2.40.1 (20161225.0304)
 -->
<!-- Title: %0 Pages: 1 -->
<svg width="750pt" height="223pt"
 viewBox="0.00 0.00 749.90 222.60" xmlns="http://www.w3.org/2000/svg" xmlns:xlink="http://www.w3.org/1999/xlink">
<g id="graph0" class="graph" transform="scale(1 1) rotate(0) translate(4 218.6)">
<title>%0</title>
<polygon fill="#ffffff" stroke="transparent" points="-4,4 -4,-218.6 745.8986,-218.6 745.8986,4 -4,4"/>
<!-- HEAD -->
<g id="node1" class="node">
<title>HEAD</title>
<ellipse fill="none" stroke="#000000" cx="293" cy="-196.6" rx="18" ry="18"/>
</g>
<!-- A -->
<g id="node5" class="node">
<title>A</title>
<polygon fill="none" stroke="#000000" points="54,-109 0,-109 0,-73 54,-73 54,-109"/>
<text text-anchor="middle" x="27" y="-86.8" font-family="Times,serif" font-size="14.00" fill="#000000">A</text>
</g>
<!-- HEAD&#45;&gt;A -->
<g id="edge1" class="edge">
<title>HEAD&#45;&gt;A</title>
<path fill="none" stroke="#000000" d="M274.7682,-195.0899C220.5906,-190.4458 63.2624,-175.7691 46.1014,-160.6 34.4674,-150.3163 29.6208,-133.6797 27.7166,-119.2505"/>
<polygon fill="#000000" stroke="#000000" points="31.1985,-118.8926 26.7951,-109.2562 24.2281,-119.5354 31.1985,-118.8926"/>
<text text-anchor="middle" x="168.4493" y="-148" font-family="Times,serif" font-size="14.00" fill="#000000">Не разрабатываем</text>
<text text-anchor="middle" x="168.4493" y="-131.2" font-family="Times,serif" font-size="14.00" fill="#000000">продукт</text>
</g>
<!-- B -->
<g id="node6" class="node">
<title>B</title>
<polygon fill="none" stroke="#000000" points="320,-109 266,-109 266,-73 320,-73 320,-109"/>
<text text-anchor="middle" x="293" y="-86.8" font-family="Times,serif" font-size="14.00" fill="#000000">B</text>
</g>
<!-- HEAD&#45;&gt;B -->
<g id="edge2" class="edge">
<title>HEAD&#45;&gt;B</title>
<path fill="none" stroke="#000000" d="M293,-178.2059C293,-161.9279 293,-137.9223 293,-119.2163"/>
<polygon fill="#000000" stroke="#000000" points="296.5001,-119.1833 293,-109.1833 289.5001,-119.1834 296.5001,-119.1833"/>
<text text-anchor="middle" x="400.4493" y="-148" font-family="Times,serif" font-size="14.00" fill="#000000">Разрабатываем</text>
<text text-anchor="middle" x="400.4493" y="-131.2" font-family="Times,serif" font-size="14.00" fill="#000000">за 400.000</text>
</g>
<!-- C -->
<g id="node7" class="node">
<title>C</title>
<polygon fill="none" stroke="#000000" points="558,-109 504,-109 504,-73 558,-73 558,-109"/>
<text text-anchor="middle" x="531" y="-86.8" font-family="Times,serif" font-size="14.00" fill="#000000">C</text>
</g>
<!-- HEAD&#45;&gt;C -->
<g id="edge3" class="edge">
<title>HEAD&#45;&gt;C</title>
<path fill="none" stroke="#000000" d="M311.1165,-195.9542C357.5843,-193.9379 479.4295,-186.2694 509,-160.6 520.8592,-150.3053 526.3921,-133.6684 528.9446,-119.2417"/>
<polygon fill="#000000" stroke="#000000" points="532.4235,-119.6346 530.3244,-109.2498 525.4893,-118.677 532.4235,-119.6346"/>
<text text-anchor="middle" x="634.4493" y="-148" font-family="Times,serif" font-size="14.00" fill="#000000">Разрабатываем</text>
<text text-anchor="middle" x="634.4493" y="-131.2" font-family="Times,serif" font-size="14.00" fill="#000000">за 1.200.000</text>
</g>
<!-- AResult -->
<g id="node2" class="node">
<title>AResult</title>
<polygon fill="none" stroke="#000000" points="54,-36 0,-36 0,0 54,0 54,-36"/>
<text text-anchor="middle" x="27" y="-13.8" font-family="Times,serif" font-size="14.00" fill="#000000">0</text>
</g>
<!-- BResult -->
<g id="node3" class="node">
<title>BResult</title>
<polygon fill="none" stroke="#000000" points="329,-36 257,-36 257,0 329,0 329,-36"/>
<text text-anchor="middle" x="293" y="-13.8" font-family="Times,serif" font-size="14.00" fill="#000000">1.652.000</text>
</g>
<!-- CResult -->
<g id="node4" class="node">
<title>CResult</title>
<polygon fill="none" stroke="#000000" points="567,-36 495,-36 495,0 567,0 567,-36"/>
<text text-anchor="middle" x="531" y="-13.8" font-family="Times,serif" font-size="14.00" fill="#000000">1.977.000</text>
</g>
<!-- A&#45;&gt;AResult -->
<g id="edge4" class="edge">
<title>A&#45;&gt;AResult</title>
<path fill="none" stroke="#000000" d="M27,-72.9551C27,-64.8828 27,-55.1764 27,-46.1817"/>
<polygon fill="#000000" stroke="#000000" points="30.5001,-46.0903 27,-36.0904 23.5001,-46.0904 30.5001,-46.0903"/>
</g>
<!-- B&#45;&gt;BResult -->
<g id="edge5" class="edge">
<title>B&#45;&gt;BResult</title>
<path fill="none" stroke="#000000" d="M293,-72.9551C293,-64.8828 293,-55.1764 293,-46.1817"/>
<polygon fill="#000000" stroke="#000000" points="296.5001,-46.0903 293,-36.0904 289.5001,-46.0904 296.5001,-46.0903"/>
</g>
<!-- C&#45;&gt;CResult -->
<g id="edge6" class="edge">
<title>C&#45;&gt;CResult</title>
<path fill="none" stroke="#000000" d="M531,-72.9551C531,-64.8828 531,-55.1764 531,-46.1817"/>
<polygon fill="#000000" stroke="#000000" points="534.5001,-46.0903 531,-36.0904 527.5001,-46.0904 534.5001,-46.0903"/>
</g>
</g>
</svg>
