<?xml version="1.0" encoding="UTF-8" standalone="no"?>
<!DOCTYPE svg PUBLIC "-//W3C//DTD SVG 1.1//EN"
 "http://www.w3.org/Graphics/SVG/1.1/DTD/svg11.dtd">
<!-- Generated by graphviz version 2.40.1 (20161225.0304)
 -->
<!-- Title: %0 Pages: 1 -->
<svg width="439pt" height="119pt"
 viewBox="0.00 0.00 439.00 118.80" xmlns="http://www.w3.org/2000/svg" xmlns:xlink="http://www.w3.org/1999/xlink">
<g id="graph0" class="graph" transform="scale(1 1) rotate(0) translate(4 114.8)">
<title>%0</title>
<polygon fill="#ffffff" stroke="transparent" points="-4,4 -4,-114.8 435,-114.8 435,4 -4,4"/>
<!-- 0 -->
<g id="node1" class="node">
<title>0</title>
<ellipse fill="none" stroke="#000000" cx="18" cy="-18" rx="18" ry="18"/>
<text text-anchor="middle" x="18" y="-13.8" font-family="Times,serif" font-size="14.00" fill="#000000">0</text>
</g>
<!-- 1 -->
<g id="node2" class="node">
<title>1</title>
<ellipse fill="none" stroke="#000000" cx="97" cy="-18" rx="18" ry="18"/>
<text text-anchor="middle" x="97" y="-13.8" font-family="Times,serif" font-size="14.00" fill="#000000">1</text>
</g>
<!-- 0&#45;&gt;1 -->
<g id="edge1" class="edge">
<title>0&#45;&gt;1</title>
<path fill="none" stroke="#000000" d="M36.3228,-18C45.8947,-18 57.8223,-18 68.5629,-18"/>
<polygon fill="#000000" stroke="#000000" points="68.7766,-21.5001 78.7766,-18 68.7766,-14.5001 68.7766,-21.5001"/>
<text text-anchor="middle" x="57.5" y="-22.2" font-family="Times,serif" font-size="14.00" fill="#000000">3</text>
</g>
<!-- 2 -->
<g id="node3" class="node">
<title>2</title>
<ellipse fill="none" stroke="#000000" cx="176" cy="-65" rx="18" ry="18"/>
<text text-anchor="middle" x="176" y="-60.8" font-family="Times,serif" font-size="14.00" fill="#000000">2</text>
</g>
<!-- 1&#45;&gt;2 -->
<g id="edge2" class="edge">
<title>1&#45;&gt;2</title>
<path fill="none" stroke="#000000" d="M112.6079,-27.2857C123.7526,-33.9161 138.962,-42.9647 151.6893,-50.5367"/>
<polygon fill="#000000" stroke="#000000" points="150.0409,-53.6286 160.4246,-55.7336 153.62,-47.6127 150.0409,-53.6286"/>
<text text-anchor="middle" x="136.5" y="-47.2" font-family="Times,serif" font-size="14.00" fill="#000000">4</text>
</g>
<!-- 3 -->
<g id="node4" class="node">
<title>3</title>
<ellipse fill="none" stroke="#000000" cx="255" cy="-55" rx="18" ry="18"/>
<text text-anchor="middle" x="255" y="-50.8" font-family="Times,serif" font-size="14.00" fill="#000000">3</text>
</g>
<!-- 1&#45;&gt;3 -->
<g id="edge3" class="edge">
<title>1&#45;&gt;3</title>
<path fill="none" stroke="#000000" d="M115.2562,-16.1007C135.0425,-14.6144 167.3583,-13.8646 194,-21.2 207.3145,-24.8659 220.874,-31.9751 231.817,-38.7314"/>
<polygon fill="#000000" stroke="#000000" points="230.0338,-41.7464 240.331,-44.2404 233.8366,-35.8694 230.0338,-41.7464"/>
<text text-anchor="middle" x="176" y="-26.2" font-family="Times,serif" font-size="14.00" fill="#000000">3</text>
</g>
<!-- 2&#45;&gt;3 -->
<g id="edge4" class="edge">
<title>2&#45;&gt;3</title>
<path fill="none" stroke="#000000" d="M187.0735,-79.6859C195.4202,-88.8367 207.3794,-97.9984 219,-93 226.3464,-89.8401 232.896,-84.3624 238.3286,-78.5337"/>
<polygon fill="#000000" stroke="#000000" points="241.2757,-80.4661 245.0142,-70.5528 235.9096,-75.971 241.2757,-80.4661"/>
<text text-anchor="middle" x="215.5" y="-98.2" font-family="Times,serif" font-size="14.00" fill="#000000">2</text>
</g>
<!-- 2&#45;&gt;3 -->
<g id="edge5" class="edge">
<title>2&#45;&gt;3</title>
<path fill="none" stroke="#000000" d="M193.9263,-62.7308C203.655,-61.4994 215.9022,-59.9491 226.8707,-58.5607"/>
<polygon fill="#000000" stroke="#000000" points="227.3899,-62.023 236.8712,-57.2948 226.5108,-55.0784 227.3899,-62.023"/>
<text text-anchor="middle" x="215.5" y="-65.2" font-family="Times,serif" font-size="14.00" fill="#000000">1</text>
</g>
<!-- 2&#45;&gt;3 -->
<g id="edge6" class="edge">
<title>2&#45;&gt;3</title>
<path fill="none" stroke="#000000" d="M189.2381,-52.4673C195.6028,-47.2912 203.6545,-41.8817 212,-39.2 218.015,-37.2672 224.4374,-38.0552 230.4352,-40.0617"/>
<polygon fill="#000000" stroke="#000000" points="229.4233,-43.4428 239.9814,-44.3234 232.2769,-37.0508 229.4233,-43.4428"/>
<text text-anchor="middle" x="215.5" y="-44.2" font-family="Times,serif" font-size="14.00" fill="#000000">1</text>
</g>
<!-- 4 -->
<g id="node5" class="node">
<title>4</title>
<ellipse fill="none" stroke="#000000" cx="334" cy="-92" rx="18" ry="18"/>
<text text-anchor="middle" x="334" y="-87.8" font-family="Times,serif" font-size="14.00" fill="#000000">4</text>
</g>
<!-- 3&#45;&gt;4 -->
<g id="edge7" class="edge">
<title>3&#45;&gt;4</title>
<path fill="none" stroke="#000000" d="M271.3689,-62.6664C282.0672,-67.6771 296.261,-74.3248 308.4312,-80.0247"/>
<polygon fill="#000000" stroke="#000000" points="307.1116,-83.2715 317.6521,-84.3434 310.0807,-76.9323 307.1116,-83.2715"/>
<text text-anchor="middle" x="294.5" y="-78.2" font-family="Times,serif" font-size="14.00" fill="#000000">2</text>
</g>
<!-- 5 -->
<g id="node6" class="node">
<title>5</title>
<ellipse fill="none" stroke="#000000" cx="413" cy="-55" rx="18" ry="18"/>
<text text-anchor="middle" x="413" y="-50.8" font-family="Times,serif" font-size="14.00" fill="#000000">5</text>
</g>
<!-- 3&#45;&gt;5 -->
<g id="edge8" class="edge">
<title>3&#45;&gt;5</title>
<path fill="none" stroke="#000000" d="M272.8397,-52.483C284.9789,-50.9004 301.4239,-49.0099 316,-48.2 331.9754,-47.3123 336.0246,-47.3123 352,-48.2 362.8182,-48.8011 374.6659,-49.9975 385.0186,-51.2214"/>
<polygon fill="#000000" stroke="#000000" points="384.8047,-54.7217 395.1603,-52.483 385.6689,-47.7752 384.8047,-54.7217"/>
<text text-anchor="middle" x="334" y="-53.2" font-family="Times,serif" font-size="14.00" fill="#000000">2</text>
</g>
<!-- 4&#45;&gt;5 -->
<g id="edge9" class="edge">
<title>4&#45;&gt;5</title>
<path fill="none" stroke="#000000" d="M350.3689,-84.3336C361.0672,-79.3229 375.261,-72.6752 387.4312,-66.9753"/>
<polygon fill="#000000" stroke="#000000" points="389.0807,-70.0677 396.6521,-62.6566 386.1116,-63.7285 389.0807,-70.0677"/>
<text text-anchor="middle" x="373.5" y="-78.2" font-family="Times,serif" font-size="14.00" fill="#000000">3</text>
</g>
</g>
</svg>
